HIERARCHY
ROOT Hips
{
	OFFSET 0.000000 121.760803 0.000000
	CHANNELS 6 Xposition Yposition Zposition Xrotation Yrotation Zrotation 
	JOINT Spine
	{
		OFFSET 0.072000 7.257294 -0.789700
		CHANNELS 3 Xrotation Yrotation Zrotation
		JOINT Spine1
		{
			OFFSET 0.000000 12.508769 -0.658067
			CHANNELS 3 Xrotation Yrotation Zrotation
			JOINT Spine1_split
			{
				OFFSET 0.000000 12.508769 -0.658067
				CHANNELS 3 Xrotation Yrotation Zrotation
				JOINT Spine2
				{
					OFFSET 0.000000 12.508769 -0.658067
					CHANNELS 3 Xrotation Yrotation Zrotation
					JOINT Neck
					{
						OFFSET 0.000000 14.033295 7.520400
						CHANNELS 3 Xrotation Yrotation Zrotation
						JOINT Head
						{
							OFFSET 0.000000 8.198502 5.703100
							CHANNELS 3 Xrotation Yrotation Zrotation
							JOINT HeadTop_End
							{
								OFFSET 0.000000 17.760803 13.332701
								CHANNELS 3 Xrotation Yrotation Zrotation
								End Site
								{
									OFFSET 0.000000 0.000000 0.000000
								}
							}
						}
					}
					JOINT LeftShoulder
					{
						OFFSET 6.292450 5.785301 -0.669000
						CHANNELS 3 Xrotation Yrotation Zrotation
						JOINT LeftShoulder_split
						{
							OFFSET 6.292450 5.785301 -0.669000
							CHANNELS 3 Xrotation Yrotation Zrotation
							JOINT LeftArm
							{
								OFFSET 13.907140 -6.093903 1.965100
								CHANNELS 3 Xrotation Yrotation Zrotation
								JOINT LeftForeArm
								{
									OFFSET 34.140198 0.000000 0.000000
									CHANNELS 3 Xrotation Yrotation Zrotation
									JOINT LeftHand
									{
										OFFSET 40.960209 0.000000 0.000000
										CHANNELS 3 Xrotation Yrotation Zrotation
										JOINT LeftHandThumb1
										{
											OFFSET 10.006996 -7.170425 9.573125
											CHANNELS 3 Xrotation Yrotation Zrotation
											JOINT LeftHandThumb2
											{
												OFFSET 1.835007 -1.059448 1.059443
												CHANNELS 3 Xrotation Yrotation Zrotation
												JOINT LeftHandThumb3
												{
													OFFSET 2.112267 -1.219513 1.219518
													CHANNELS 3 Xrotation Yrotation Zrotation
													JOINT LeftHandThumb4
													{
														OFFSET 4.843811 -2.796570 2.796576
														CHANNELS 3 Xrotation Yrotation Zrotation
														End Site
														{
															OFFSET 0.000000 0.000000 0.000000
														}
													}
												}
											}
										}
										JOINT LeftHandIndex1
										{
											OFFSET 18.389847 -0.922348 4.596882
											CHANNELS 3 Xrotation Yrotation Zrotation
											JOINT LeftHandIndex2
											{
												OFFSET 4.711273 0.000000 0.000000
												CHANNELS 3 Xrotation Yrotation Zrotation
												JOINT LeftHandIndex3
												{
													OFFSET 2.886131 0.000000 0.000000
													CHANNELS 3 Xrotation Yrotation Zrotation
													JOINT LeftHandIndex4
													{
														OFFSET 6.145912 0.000000 0.000000
														CHANNELS 3 Xrotation Yrotation Zrotation
														End Site
														{
															OFFSET 0.000000 0.000000 0.000000
														}
													}
												}
											}
										}
										JOINT LeftHandMiddle1
										{
											OFFSET 18.013008 0.000000 0.000000
											CHANNELS 3 Xrotation Yrotation Zrotation
											JOINT LeftHandMiddle2
											{
												OFFSET 4.946693 0.000000 0.000000
												CHANNELS 3 Xrotation Yrotation Zrotation
												JOINT LeftHandMiddle3
												{
													OFFSET 3.342232 0.000000 0.000000
													CHANNELS 3 Xrotation Yrotation Zrotation
													JOINT LeftHandMiddle4
													{
														OFFSET 4.461754 0.000000 0.000000
														CHANNELS 3 Xrotation Yrotation Zrotation
														End Site
														{
															OFFSET 0.000000 0.000000 0.000000
														}
													}
												}
											}
										}
										JOINT LeftHandRing1
										{
											OFFSET 15.849892 -0.102921 -4.126150
											CHANNELS 3 Xrotation Yrotation Zrotation
											JOINT LeftHandRing2
											{
												OFFSET 3.527054 0.000000 0.000000
												CHANNELS 3 Xrotation Yrotation Zrotation
												JOINT LeftHandRing3
												{
													OFFSET 2.961098 0.000000 0.000000
													CHANNELS 3 Xrotation Yrotation Zrotation
													JOINT LeftHandRing4
													{
														OFFSET 4.927200 0.000000 0.000000
														CHANNELS 3 Xrotation Yrotation Zrotation
														End Site
														{
															OFFSET 0.000000 0.000000 0.000000
														}
													}
												}
											}
										}
										JOINT LeftHandPinky1
										{
											OFFSET 12.791824 -0.832031 -6.799156
											CHANNELS 3 Xrotation Yrotation Zrotation
											JOINT LeftHandPinky2
											{
												OFFSET 3.327133 0.000000 0.000000
												CHANNELS 3 Xrotation Yrotation Zrotation
												JOINT LeftHandPinky3
												{
													OFFSET 3.014900 0.000000 0.000000
													CHANNELS 3 Xrotation Yrotation Zrotation
													JOINT LeftHandPinky4
													{
														OFFSET 5.847786 0.000000 0.000000
														CHANNELS 3 Xrotation Yrotation Zrotation
														End Site
														{
															OFFSET 0.000000 0.000000 0.000000
														}
													}
												}
											}
										}
									}
								}
							}
						}
					}
					JOINT RightShoulder
					{
						OFFSET -6.292450 5.785301 -0.669000
						CHANNELS 3 Xrotation Yrotation Zrotation
						JOINT RightShoulder_split
						{
							OFFSET -6.292450 5.785301 -0.669000
							CHANNELS 3 Xrotation Yrotation Zrotation
							JOINT RightArm
							{
								OFFSET -13.907140 -6.093903 1.965100
								CHANNELS 3 Xrotation Yrotation Zrotation
								JOINT RightForeArm
								{
									OFFSET -34.140198 0.000000 0.000000
									CHANNELS 3 Xrotation Yrotation Zrotation
									JOINT RightHand
									{
										OFFSET -40.960209 0.000000 0.000000
										CHANNELS 3 Xrotation Yrotation Zrotation
										JOINT RightHandThumb1
										{
											OFFSET -10.007050 -7.170456 9.573117
											CHANNELS 3 Xrotation Yrotation Zrotation
											JOINT RightHandThumb2
											{
												OFFSET -1.835007 -1.059448 1.059443
												CHANNELS 3 Xrotation Yrotation Zrotation
												JOINT RightHandThumb3
												{
													OFFSET -2.112267 -1.219513 1.219518
													CHANNELS 3 Xrotation Yrotation Zrotation
													JOINT RightHandThumb4
													{
														OFFSET -4.843834 -2.796585 2.796590
														CHANNELS 3 Xrotation Yrotation Zrotation
														End Site
														{
															OFFSET 0.000000 0.000000 0.000000
														}
													}
												}
											}
										}
										JOINT RightHandIndex1
										{
											OFFSET -18.389870 -0.922424 4.596786
											CHANNELS 3 Xrotation Yrotation Zrotation
											JOINT RightHandIndex2
											{
												OFFSET -4.711273 0.000000 0.000000
												CHANNELS 3 Xrotation Yrotation Zrotation
												JOINT RightHandIndex3
												{
													OFFSET -2.886131 0.000000 0.000000
													CHANNELS 3 Xrotation Yrotation Zrotation
													JOINT RightHandIndex4
													{
														OFFSET -6.145920 0.000000 0.000000
														CHANNELS 3 Xrotation Yrotation Zrotation
														End Site
														{
															OFFSET 0.000000 0.000000 0.000000
														}
													}
												}
											}
										}
										JOINT RightHandMiddle1
										{
											OFFSET -18.013008 0.000000 0.000000
											CHANNELS 3 Xrotation Yrotation Zrotation
											JOINT RightHandMiddle2
											{
												OFFSET -4.946693 0.000000 0.000000
												CHANNELS 3 Xrotation Yrotation Zrotation
												JOINT RightHandMiddle3
												{
													OFFSET -3.342232 0.000000 0.000000
													CHANNELS 3 Xrotation Yrotation Zrotation
													JOINT RightHandMiddle4
													{
														OFFSET -4.461754 0.000000 0.000000
														CHANNELS 3 Xrotation Yrotation Zrotation
														End Site
														{
															OFFSET 0.000000 0.000000 0.000000
														}
													}
												}
											}
										}
										JOINT RightHandRing1
										{
											OFFSET -15.849876 -0.102936 -4.126237
											CHANNELS 3 Xrotation Yrotation Zrotation
											JOINT RightHandRing2
											{
												OFFSET -3.527054 0.000000 0.000000
												CHANNELS 3 Xrotation Yrotation Zrotation
												JOINT RightHandRing3
												{
													OFFSET -2.961098 0.000000 0.000000
													CHANNELS 3 Xrotation Yrotation Zrotation
													JOINT RightHandRing4
													{
														OFFSET -4.927200 0.000000 0.000000
														CHANNELS 3 Xrotation Yrotation Zrotation
														End Site
														{
															OFFSET 0.000000 0.000000 0.000000
														}
													}
												}
											}
										}
										JOINT RightHandPinky1
										{
											OFFSET -12.791786 -0.832077 -6.799222
											CHANNELS 3 Xrotation Yrotation Zrotation
											JOINT RightHandPinky2
											{
												OFFSET -3.327133 0.000000 0.000000
												CHANNELS 3 Xrotation Yrotation Zrotation
												JOINT RightHandPinky3
												{
													OFFSET -3.014900 0.000000 0.000000
													CHANNELS 3 Xrotation Yrotation Zrotation
													JOINT RightHandPinky4
													{
														OFFSET -5.847786 0.000000 0.000000
														CHANNELS 3 Xrotation Yrotation Zrotation
														End Site
														{
															OFFSET 0.000000 0.000000 0.000000
														}
													}
												}
											}
										}
									}
								}
							}
						}
					}
				}
			}
		}
	}
	JOINT LeftUpLeg
	{
		OFFSET 13.026900 -6.336304 -1.092800
		CHANNELS 3 Xrotation Yrotation Zrotation
		JOINT LeftLeg
		{
			OFFSET 0.524474 -46.096886 9.782700
			CHANNELS 3 Xrotation Yrotation Zrotation
			JOINT LeftFoot
			{
				OFFSET -0.524474 -53.427422 -12.948200
				CHANNELS 3 Xrotation Yrotation Zrotation
				JOINT LeftToeBase
				{
					OFFSET 0.192200 -14.009700 16.364100
					CHANNELS 3 Xrotation Yrotation Zrotation
					JOINT LeftToe_End
					{
						OFFSET -1.784700 -0.561700 9.474800
						CHANNELS 3 Xrotation Yrotation Zrotation
						End Site
						{
							OFFSET 0.000000 0.000000 0.000000
						}
					}
				}
			}
		}
	}
	JOINT RightUpLeg
	{
		OFFSET -12.883000 -6.336304 -1.092800
		CHANNELS 3 Xrotation Yrotation Zrotation
		JOINT RightLeg
		{
			OFFSET -0.524587 -46.096825 9.782800
			CHANNELS 3 Xrotation Yrotation Zrotation
			JOINT RightFoot
			{
				OFFSET 0.524587 -53.427383 -12.948300
				CHANNELS 3 Xrotation Yrotation Zrotation
				JOINT RightToeBase
				{
					OFFSET -0.192200 -14.009700 16.364100
					CHANNELS 3 Xrotation Yrotation Zrotation
					JOINT RightToe_End
					{
						OFFSET 1.784700 -0.561700 9.474800
						CHANNELS 3 Xrotation Yrotation Zrotation
						End Site
						{
							OFFSET 0.000000 0.000000 0.000000
						}
					}
				}
			}
		}
	}
}
MOTION
Frames: 4
Frame Time: 0.016667
-83.390244 22.953735 2.777149 -58.721185 9.254251 100.443765 13.665176 -0.207151 -7.976760 16.440306 0.246672 -3.275165 0.000000 0.000000 0.000000 16.425632 0.382569 -3.359051 55.837872 6.471002 -15.932347 -15.707541 9.351465 1.833018 -0.000000 -0.000001 -0.000001 5.814953 1.516410 -4.688135 0.000000 0.000000 0.000000 -74.915243 -6.740975 -27.974766 58.640801 -0.227345 0.365209 -133.094760 1.338644 -9.402834 40.109938 -15.297168 -0.360499 5.639810 28.097954 11.338848 1.088567 40.896287 22.734029 -0.000000 0.000003 -0.000000 6.882244 2.840058 -61.140411 8.248013 7.640064 -89.897878 2.146109 8.173444 -41.827740 0.000001 0.000003 -0.000001 -2.345507 4.688869 -62.655224 8.754144 9.897080 -87.051294 1.995391 4.929281 -37.483443 -0.000001 0.000002 0.000001 -9.042453 10.045658 -60.766185 8.524094 9.508824 -66.893022 6.576560 9.896778 -70.385093 -0.000000 -0.000002 -0.000002 -17.946897 14.754988 -51.485860 8.868435 8.667057 -84.811968 4.540455 8.852547 -59.152963 0.000001 0.000000 -0.000003 4.350982 9.519743 -3.915169 0.000000 0.000000 0.000000 -1.908431 -4.831214 1.339511 32.754620 33.258763 -23.829335 -6.484602 12.966933 -27.297570 -1.264351 -6.049206 -2.222019 3.622075 -28.238608 -7.467062 -1.666017 -4.024798 -2.390805 -0.000000 0.000000 -0.000001 5.510554 -12.536707 32.643762 0.964250 -4.576403 40.090427 1.053053 -7.415407 38.538543 -0.000002 -0.000003 0.000002 2.422447 -10.452747 50.257659 1.705369 -6.329509 40.569975 1.565840 -4.685921 43.312811 0.000000 0.000000 -0.000000 1.697863 -16.683519 49.417839 3.312915 -5.897092 49.275215 3.225152 -7.675927 51.715829 -0.000001 0.000000 -0.000001 -0.128114 -24.863962 64.179538 8.350112 -6.902187 80.012948 6.807213 -9.122699 73.762853 0.000001 0.000000 0.000001 -37.841973 28.206579 2.334772 63.256001 -2.175514 -7.214045 -16.837294 -11.371808 4.471921 -1.295516 -0.033275 -0.027847 0.000001 0.000001 -0.000000 -59.169990 -5.738742 -35.556606 116.497810 6.862303 6.833530 6.028598 10.197951 28.512625 -0.001744 0.015022 -0.000111 0.000001 -0.000001 0.000000 
-84.362320 19.684578 3.191462 -58.147893 3.911937 102.946886 15.926044 -0.852728 -7.245565 15.237951 -0.553118 -2.719578 0.000000 0.000000 0.000000 15.233188 -0.442753 -2.765196 59.396110 3.808043 -15.534167 -14.123796 7.966007 -0.046233 -0.000000 -0.000001 -0.000001 5.850639 3.867374 -9.147229 0.000000 0.000000 0.000000 -79.175464 -4.790787 -29.369632 66.580732 -0.196834 0.415284 -130.528576 2.100601 -1.414906 40.109938 -15.297170 -0.360497 5.639811 28.097949 11.338842 1.088566 40.896297 22.734022 -0.000001 -0.000001 0.000000 6.882244 2.840061 -61.140411 8.248012 7.640067 -89.897878 2.146107 8.173444 -41.827740 -0.000001 -0.000001 0.000002 -2.345509 4.688871 -62.655217 8.754147 9.897079 -87.051294 1.995389 4.929280 -37.483443 0.000000 0.000001 -0.000003 -9.042457 10.045662 -60.766185 8.524094 9.508826 -66.893029 6.576560 9.896780 -70.385093 -0.000001 -0.000000 0.000001 -17.946899 14.754990 -51.485853 8.868428 8.667059 -84.811968 4.540454 8.852549 -59.152963 0.000001 0.000003 -0.000003 3.987317 5.771290 -5.369520 0.000000 0.000000 0.000000 0.856455 3.213924 0.708518 26.740064 31.874939 -18.503116 -6.515412 15.387233 -26.510776 -1.549565 -6.169142 -1.948565 3.754892 -28.218826 -7.731349 -1.573002 -4.021567 -2.475576 0.000002 -0.000000 0.000002 5.611885 -12.685510 32.943792 1.033062 -4.592727 40.333360 1.116628 -7.451949 38.833324 -0.000000 0.000001 -0.000000 2.535952 -10.495715 50.782279 1.733144 -6.345989 40.670973 1.623965 -4.738625 43.658368 0.000000 0.000000 -0.000001 1.857071 -16.770044 49.979295 3.310349 -5.941005 49.419362 3.299594 -7.755501 52.230689 0.000002 -0.000002 -0.000001 0.126673 -25.012639 64.844300 8.394875 -7.019051 80.688508 6.907585 -9.203457 74.691739 -0.000002 0.000002 -0.000001 -36.488653 23.649276 2.538157 65.730981 2.872240 -7.202445 -21.695874 -9.133665 2.396743 -1.251886 -0.018548 -0.015377 0.000001 -0.000000 0.000000 -57.549173 -5.955792 -34.348707 117.672357 0.825687 5.122613 -2.000684 7.407133 26.781523 -0.001748 0.016250 -0.000100 -0.000001 -0.000001 0.000001 
-85.163910 18.092110 3.661644 -57.357272 -0.735774 105.035680 17.547734 -1.617524 -6.242404 13.624174 -1.732714 -2.465769 0.000000 0.000000 0.000000 13.638202 -1.655714 -2.445543 61.075504 1.954506 -14.888457 -12.574471 6.608064 -1.023412 -0.000000 -0.000001 0.000000 5.241385 7.707924 -14.772681 0.000000 0.000000 0.000000 -82.451489 -2.394238 -28.832879 71.492116 -0.210149 0.553449 -123.104434 0.006962 2.277042 40.109938 -15.297170 -0.360501 5.639817 28.097949 11.338839 1.088564 40.896297 22.734025 -0.000000 0.000000 0.000002 6.882242 2.840062 -61.140404 8.248011 7.640062 -89.897878 2.146105 8.173443 -41.827737 0.000001 0.000000 -0.000005 -2.345509 4.688872 -62.655224 8.754149 9.897076 -87.051294 1.995390 4.929280 -37.483443 -0.000001 -0.000001 0.000000 -9.042459 10.045663 -60.766185 8.524089 9.508824 -66.893029 6.576562 9.896779 -70.385093 -0.000000 -0.000000 0.000001 -17.946901 14.754991 -51.485853 8.868435 8.667058 -84.811968 4.540456 8.852549 -59.152969 0.000001 0.000002 0.000001 4.001937 5.115520 -8.837083 0.000000 0.000000 0.000000 0.941029 11.676196 -0.032725 16.412180 34.300151 -10.963364 -9.500772 4.579476 -16.821559 -1.829263 -6.289136 -1.679241 3.885947 -28.199298 -7.991211 -1.480425 -4.021763 -2.560456 0.000001 -0.000000 -0.000000 5.712085 -12.831497 33.221183 1.100944 -4.608011 40.554330 1.179146 -7.487879 39.104855 0.000002 -0.000001 -0.000000 2.647840 -10.536387 51.279851 1.759824 -6.362482 40.753007 1.681254 -4.790371 43.979971 -0.000002 0.000000 -0.000001 2.014509 -16.852428 50.513753 3.308034 -5.984403 49.543358 3.374257 -7.833455 52.719484 -0.000001 -0.000003 -0.000004 0.379743 -25.154260 65.481741 8.441274 -7.134624 81.335040 7.008376 -9.280750 75.588016 0.000004 -0.000001 -0.000001 -32.937184 18.069110 2.761275 67.100448 10.511834 -8.185317 -27.531762 -4.596687 -5.619504 -1.205613 -0.003107 -0.002244 0.000000 -0.000000 0.000000 -55.009626 -5.233507 -32.463257 117.670198 -6.128053 3.596631 -7.638903 5.503935 23.449846 -0.001735 0.017328 -0.000097 -0.000001 -0.000001 0.000000 
-85.909561 17.556862 4.031261 -57.122989 -4.695037 107.583464 17.500473 -1.698261 -6.954078 12.355794 -1.761862 -1.940306 0.000000 0.000000 0.000000 12.378817 -1.624626 -1.926830 59.987687 0.650057 -12.018809 -12.691755 2.856334 1.482935 0.000000 0.000000 0.000000 3.701479 9.640395 -19.253677 0.000000 0.000000 0.000000 -85.769759 -1.001391 -27.598655 69.277980 -0.255654 0.574475 -109.058512 -7.133543 4.798817 40.109931 -15.297170 -0.360499 5.639812 28.097950 11.338839 1.088560 40.896297 22.734023 -0.000001 0.000003 0.000001 6.882242 2.840062 -61.140404 8.248011 7.640063 -89.897878 2.146109 8.173443 -41.827737 -0.000000 0.000003 -0.000006 -2.345507 4.688870 -62.655224 8.754147 9.897080 -87.051294 1.995388 4.929280 -37.483443 0.000000 -0.000001 -0.000001 -9.042457 10.045662 -60.766185 8.524093 9.508824 -66.893029 6.576561 9.896778 -70.385093 -0.000000 -0.000001 0.000001 -17.946899 14.754990 -51.485857 8.868429 8.667058 -84.811968 4.540454 8.852549 -59.152969 0.000001 0.000003 0.000004 3.553656 17.233486 -9.962802 0.000000 0.000000 0.000000 5.185763 5.341666 -2.433863 15.662633 31.146407 -9.027869 -12.315965 0.733335 -13.862421 -2.103291 -6.408986 -1.414484 4.016389 -28.183512 -8.246980 -1.390839 -4.017061 -2.642540 0.000004 -0.000000 -0.000000 5.811199 -12.974707 33.475368 1.167862 -4.622504 40.751859 1.241197 -7.522252 39.352705 -0.000001 0.000001 -0.000002 2.758045 -10.575068 51.750171 1.786557 -6.378072 40.814325 1.737824 -4.841156 44.277306 0.000001 -0.000000 -0.000001 2.170267 -16.931247 51.020680 3.305862 -6.027671 49.645940 3.449126 -7.909946 53.181243 0.000001 0.000004 0.000002 0.630553 -25.288996 66.090570 8.488888 -7.248950 81.951041 7.108955 -9.354638 76.450437 0.000001 -0.000001 0.000001 -28.654385 13.136957 1.789438 67.880865 19.432020 -8.946129 -30.440674 0.693571 -13.571003 -1.197313 -0.000466 -0.000000 0.000000 -0.000000 0.000000 -51.999562 -3.842856 -32.591477 115.800571 -7.249976 3.253088 -8.528942 3.558909 19.810202 -0.001734 0.018264 -0.000193 -0.000001 -0.000001 -0.000000 
